<?xml version="1.0" encoding="UTF-8"?><svg id="Layer_1" xmlns="http://www.w3.org/2000/svg" viewBox="0 0 1363.13 538.67"><path d="m348.86,164.56s33.1-25.05,71.58-58.16c38.47-33.1,103.79-86.79,142.26-94.84C601.17,3.52,790.5,1.71,886.44,1.71c106.02,0,223.82-8.03,256.03,10.76,32.21,18.79,135.1,144.94,135.1,144.94l-327.46,50.1-601.25-42.95Z" fill="#434657"/><path d="m101.92,460.71S1.27,445.95,1.27,432.53s-6.71-146.29,10.74-174.47c17.45-28.18,56.37-63.08,147.63-79.18,91.26-16.11,167.76-18.79,187.89-17.45,20.13,1.34,67.1,13.42,208.02,12.08,140.92-1.34,718.01-22.81,718.01-22.81,0,0,33.55,32.21,37.58,80.52,4.03,48.31,12.08,65.76,12.08,65.76l24.16,21.47s9.39,8.05,12.08,33.55c2.68,25.5,10.24,51.24-9.4,69.79-24.16,22.81-56.37,25.5-56.37,25.5l-1191.76,13.42Z" fill="#2b2a25"/><path d="m1359.44,352.01c-2.68-25.5-12.08-33.55-12.08-33.55l-24.16-21.47s-4.03-17.45-8.05-65.76c-4.03-48.31-41.6-80.52-41.6-80.52,0,0-577.09,21.47-718.01,22.81-140.92,1.34-187.89-10.74-208.02-12.08-20.13-1.34-96.63,1.34-187.89,17.45-91.26,16.1-130.18,51-147.63,79.18C-5.44,286.24,1.27,419.11,1.27,432.53s100.66,28.18,100.66,28.18l54.12-.61c-4.22-12.8-6.51-26.47-6.51-40.69,0-71.71,58.13-129.84,129.84-129.84s129.84,58.13,129.84,129.84c0,.16,0,.33,0,.49,0,.11,0,.22,0,.32,0,12.92-1.72,25.36-4.94,37.07l597.22-6.73c-2.46-9.99-3.78-20.42-3.78-31.17,0-71.71,58.13-129.84,129.84-129.84s129.84,58.13,129.84,129.84c0,.16,0,.33,0,.49,0,.11,0,.22,0,.32,0,9.45-.92,18.65-2.68,27.49l38.95-.44s32.21-2.68,56.37-25.5c19.64-18.54,12.08-44.29,9.4-69.79Z" fill="#f9cc3d"/><path d="m1302.45,404.33c-20.13-14.76-18.79-46.97-34.89-79.18-16.1-32.21-53.68-61.74-114.08-68.45-62.79-6.98-127.5,16.1-166.42,55.02-36.07,36.07-46.97,89.92-46.97,89.92l-487.17,4.03s0-42.94-49.66-102c-49.66-59.05-193.26-51-240.23-1.34-32.59,34.46-53.68,91.26-53.68,91.26,0,0-45.56,1.06-60.35-1.34C36.45,390.22,0,375.89,0,375.89c.21,28.15,1.23,51.42,1.23,56.64,0,13.42,100.65,28.18,100.65,28.18l54.12-.61c-4.22-12.8-6.51-26.47-6.51-40.69,0-71.71,58.13-129.84,129.84-129.84s129.84,58.13,129.84,129.84c0,.16,0,.33,0,.49,0,.11,0,.22,0,.32,0,12.92-1.72,25.36-4.94,37.07l597.22-6.73c-2.46-9.99-3.77-20.42-3.77-31.17,0-71.71,58.13-129.84,129.84-129.84s129.84,58.13,129.84,129.84c0,.16,0,.33,0,.49,0,.11,0,.22,0,.32,0,9.45-.92,18.65-2.68,27.49l38.95-.44s29.65-2.48,53.39-22.84c-14.92-4.93-33.69-12.13-44.59-20.13Z" fill="#686866"/><circle cx="284.55" cy="414.2" r="117.76" transform="translate(-209.54 322.53) rotate(-45)" fill="#777464"/><path d="m328.84,305.8c34.23,20.6,64.43,54.59,66.06,97.42,2.23,58.65-24.03,125.17-123.24,122.5-15.66-.42-34.05-4.25-47.73-9.81,17.71,10.66,43.37,15.75,65.54,15.75,65.04,0,112.84-51.68,112.84-116.72,0-49.37-30.38-91.64-73.47-109.14Z" fill="#424038"/><path d="m356.38,414.2c0,39.67-32.16,71.83-71.82,71.83s-71.82-32.16-71.82-71.83,32.16-71.82,71.82-71.82,71.82,32.16,71.82,71.82Z" fill="#b7b29e"/><path d="m350.53,414.2c0,36.44-29.54,65.98-65.98,65.98s-65.98-29.54-65.98-65.98,29.54-65.98,65.98-65.98,65.98,29.54,65.98,65.98Z" fill="#969283"/><path d="m331.32,414.2c0,25.83-20.94,46.77-46.77,46.77s-46.77-20.94-46.77-46.77,20.94-46.77,46.77-46.77,46.77,20.94,46.77,46.77Z" fill="#777464"/><path d="m291.32,445.3c0,3.73-3.03,6.76-6.76,6.76h0c-3.74,0-6.76-3.03-6.76-6.76v-62.2c0-3.73,3.03-6.76,6.76-6.76h0c3.73,0,6.76,3.03,6.76,6.76v62.2Z" fill="#969283"/><path d="m315.66,406.76c3.73,0,6.76,3.03,6.76,6.76h0c0,3.73-3.03,6.76-6.76,6.76h-62.2c-3.73,0-6.76-3.03-6.76-6.76h0c0-3.73,3.03-6.76,6.76-6.76h62.2Z" fill="#969283"/><path d="m311.57,431.65c2.64,2.64,2.64,6.92,0,9.56h0c-2.64,2.64-6.92,2.64-9.56,0l-43.98-43.98c-2.64-2.64-2.64-6.92,0-9.56h0c2.64-2.64,6.92-2.64,9.56,0l43.98,43.98Z" fill="#969283"/><path d="m301.53,387.19c2.64-2.64,6.92-2.64,9.56,0h0c2.64,2.64,2.64,6.92,0,9.56l-43.98,43.98c-2.64,2.64-6.92,2.64-9.56,0h0c-2.64-2.64-2.64-6.92,0-9.56l43.98-43.98Z" fill="#969283"/><path d="m311.6,414.2c0,14.94-12.11,27.04-27.04,27.04s-27.04-12.11-27.04-27.04,12.11-27.04,27.04-27.04,27.04,12.11,27.04,27.04Z" fill="#969283"/><path d="m177.93,408.42l10.02-7.79s1.11-36.75,37.31-64.03c33.05-24.91,73.5-20.6,73.5-20.6l3.9-7.8s-50.67-6.12-85.75,22.27c-42.25,34.2-38.98,77.95-38.98,77.95Z" fill="#969283" opacity=".4"/><path d="m287.76,382.25c0,1.77-1.43,3.2-3.2,3.2s-3.2-1.43-3.2-3.2,1.43-3.2,3.2-3.2,3.2,1.43,3.2,3.2Z" fill="#b7b29e"/><path d="m310.03,391.16c0,1.77-1.43,3.2-3.2,3.2s-3.2-1.43-3.2-3.2,1.43-3.2,3.2-3.2,3.2,1.43,3.2,3.2Z" fill="#b7b29e"/><path d="m320.61,413.71c0,1.77-1.43,3.2-3.2,3.2s-3.2-1.43-3.2-3.2,1.44-3.2,3.2-3.2,3.2,1.43,3.2,3.2Z" fill="#b7b29e"/><path d="m311.15,437.93c0,1.77-1.43,3.2-3.2,3.2s-3.2-1.43-3.2-3.2,1.43-3.2,3.2-3.2,3.2,1.43,3.2,3.2Z" fill="#b7b29e"/><path d="m287.48,446.28c0,1.77-1.43,3.2-3.2,3.2s-3.2-1.43-3.2-3.2,1.43-3.2,3.2-3.2,3.2,1.43,3.2,3.2Z" fill="#b7b29e"/><path d="m265.21,436.54c0,1.77-1.43,3.2-3.2,3.2s-3.2-1.43-3.2-3.2,1.43-3.2,3.2-3.2,3.2,1.43,3.2,3.2Z" fill="#b7b29e"/><path d="m256.3,413.99c0,1.77-1.43,3.2-3.2,3.2s-3.2-1.43-3.2-3.2,1.43-3.2,3.2-3.2,3.2,1.43,3.2,3.2Z" fill="#b7b29e"/><path d="m265.21,391.16c0,1.77-1.43,3.2-3.2,3.2s-3.2-1.43-3.2-3.2,1.43-3.2,3.2-3.2,3.2,1.43,3.2,3.2Z" fill="#b7b29e"/><path d="m299.4,414.2c0,8.2-6.65,14.85-14.85,14.85s-14.85-6.65-14.85-14.85,6.65-14.85,14.85-14.85,14.85,6.65,14.85,14.85Z" fill="#b7b29e"/><path d="m1250.5,420.91c0,65.04-52.72,117.76-117.76,117.76s-117.76-52.72-117.76-117.76,52.72-117.76,117.76-117.76,117.76,52.72,117.76,117.76Z" fill="#777464"/><path d="m1177.03,312.51c34.23,20.6,64.43,54.59,66.05,97.42,2.23,58.65-24.03,125.17-123.24,122.5-15.66-.42-34.05-4.25-47.73-9.81,17.71,10.66,43.37,15.75,65.54,15.75,65.04,0,112.84-51.68,112.84-116.72,0-49.37-30.38-91.64-73.47-109.14Z" fill="#424038"/><path d="m1204.57,420.91c0,39.67-32.16,71.83-71.82,71.83s-71.83-32.16-71.83-71.83,32.16-71.82,71.83-71.82,71.82,32.16,71.82,71.82Z" fill="#b7b29e"/><path d="m1198.72,420.91c0,36.44-29.54,65.98-65.98,65.98s-65.98-29.54-65.98-65.98,29.54-65.98,65.98-65.98,65.98,29.54,65.98,65.98Z" fill="#969283"/><path d="m1179.51,420.91c0,25.83-20.94,46.77-46.77,46.77s-46.77-20.94-46.77-46.77,20.94-46.77,46.77-46.77,46.77,20.94,46.77,46.77Z" fill="#777464"/><path d="m1139.5,452.01c0,3.73-3.03,6.76-6.76,6.76h0c-3.73,0-6.76-3.03-6.76-6.76v-62.2c0-3.73,3.03-6.76,6.76-6.76h0c3.73,0,6.76,3.03,6.76,6.76v62.2Z" fill="#969283"/><path d="m1163.85,413.47c3.73,0,6.76,3.03,6.76,6.76h0c0,3.73-3.03,6.76-6.76,6.76h-62.2c-3.73,0-6.76-3.03-6.76-6.76h0c0-3.73,3.03-6.76,6.76-6.76h62.2Z" fill="#969283"/><path d="m1159.76,438.36c2.64,2.64,2.64,6.92,0,9.56h0c-2.64,2.64-6.92,2.64-9.56,0l-43.98-43.99c-2.64-2.64-2.64-6.92,0-9.56h0c2.64-2.64,6.92-2.64,9.56,0l43.98,43.99Z" fill="#969283"/><path d="m1149.72,393.9c2.64-2.64,6.92-2.64,9.56,0h0c2.64,2.64,2.64,6.92,0,9.56l-43.98,43.98c-2.64,2.64-6.92,2.64-9.56,0h0c-2.64-2.64-2.64-6.92,0-9.56l43.98-43.98Z" fill="#969283"/><path d="m1159.79,420.91c0,14.94-12.11,27.04-27.04,27.04s-27.04-12.11-27.04-27.04,12.11-27.04,27.04-27.04,27.04,12.11,27.04,27.04Z" fill="#969283"/><path d="m1026.12,415.13l10.02-7.79s1.11-36.75,37.31-64.03c33.05-24.91,73.5-20.6,73.5-20.6l3.9-7.8s-50.67-6.12-85.75,22.27c-42.25,34.2-38.98,77.95-38.98,77.95Z" fill="#969283" opacity=".4"/><path d="m1135.95,388.96c0,1.77-1.43,3.2-3.2,3.2s-3.2-1.43-3.2-3.2,1.43-3.2,3.2-3.2,3.2,1.43,3.2,3.2Z" fill="#b7b29e"/><path d="m1158.22,397.87c0,1.77-1.43,3.2-3.2,3.2s-3.2-1.43-3.2-3.2,1.43-3.2,3.2-3.2,3.2,1.43,3.2,3.2Z" fill="#b7b29e"/><path d="m1168.8,420.42c0,1.77-1.43,3.2-3.2,3.2s-3.2-1.43-3.2-3.2,1.43-3.2,3.2-3.2,3.2,1.43,3.2,3.2Z" fill="#b7b29e"/><path d="m1159.33,444.64c0,1.77-1.43,3.2-3.2,3.2s-3.2-1.43-3.2-3.2,1.43-3.2,3.2-3.2,3.2,1.43,3.2,3.2Z" fill="#b7b29e"/><path d="m1135.67,452.99c0,1.77-1.43,3.2-3.2,3.2s-3.2-1.43-3.2-3.2,1.43-3.2,3.2-3.2,3.2,1.43,3.2,3.2Z" fill="#b7b29e"/><path d="m1113.4,443.25c0,1.77-1.43,3.2-3.2,3.2s-3.2-1.43-3.2-3.2,1.43-3.2,3.2-3.2,3.2,1.43,3.2,3.2Z" fill="#b7b29e"/><path d="m1104.49,420.7c0,1.77-1.43,3.2-3.2,3.2s-3.2-1.43-3.2-3.2,1.43-3.2,3.2-3.2,3.2,1.43,3.2,3.2Z" fill="#b7b29e"/><path d="m1113.4,397.87c0,1.77-1.43,3.2-3.2,3.2s-3.2-1.43-3.2-3.2,1.43-3.2,3.2-3.2,3.2,1.43,3.2,3.2Z" fill="#b7b29e"/><path d="m1147.59,420.91c0,8.2-6.65,14.85-14.85,14.85s-14.85-6.65-14.85-14.85,6.65-14.85,14.85-14.85,14.85,6.65,14.85,14.85Z" fill="#b7b29e"/><path d="m465.03,154.7s92.6-120.79,106.02-124.81c13.42-4.03,267.07-9.4,267.07-5.37s-10.74,120.79-10.74,120.79l-362.36,9.39Z" fill="#97c1bf"/><polygon points="873.02 27.12 863.63 139.86 1188.41 134.49 1115.94 23.1 873.02 27.12" fill="#97c1bf"/><path d="m100.73,223.42c-21.15,2.46-39,16.49-51.21,32.04-14.76,18.79-23.61,42.11-2.1,41.63,20.58-.47,29.94-14.7,47.77-31.85,17.94-17.26,29.63-44.62,5.54-41.81Z" fill="#97c1bf"/><path d="m71.38,262.09c-11.63,12.72-23.79,20.53-27.17,17.44-3.37-3.09,3.31-15.9,14.94-28.62,11.63-12.72,23.79-20.53,27.17-17.44,3.38,3.09-3.31,15.9-14.94,28.62Z" fill="#fff" opacity=".5"/><path d="m114.01,226.3l-4.92-2.05s11.06,9.42-22.53,45.87c-29.09,31.57-51.61,21.71-51.61,21.71l.82,3.69s2.46,7.37,23.35,2.87c20.89-4.51,44.65-35.23,54.48-52.84,9.83-17.61.41-19.25.41-19.25Z" fill="#72726f"/><path d="m1314.3,222.47s-45.62-1.08-50.4-1.08-11.94,5.28-11.94,11.87,3.58,48.82,4.78,54.1c1.19,5.28,8.36,10.56,16.72,10.56s50.16,1.32,50.16,1.32l-9.32-76.77Z" fill="#b52c1a"/><polygon points="1263.6 229.74 1267.89 288.26 1285.01 288.26 1280.73 229.15 1263.6 229.74" fill="#f23325"/><polygon points="387.19 192.28 282.51 237.91 1275.64 208.39 1235.38 165.44 387.19 192.28" fill="#fff35a"/><path d="m477.22,394.36l438.84-6.04s-42.27-32.21-177.14-36.23c-134.87-4.03-261.69,42.27-261.69,42.27Z" fill="#fff35a"/><path d="m469.67,408.46l-.42-1.47c-.32-1.11-32.03-111.54-33.07-158.3-1.35-60.59,15.94-77.65,16.68-78.35.81-.76,2.08-.73,2.85.08.76.8.73,2.07-.07,2.84-.19.19-16.72,16.95-15.43,75.34.96,43.32,28.72,142.52,32.49,155.8l373.58-4c4.66-11.03,39.42-95.36,37.57-150.92-1.96-58.71-35.52-82.9-35.86-83.13-.91-.64-1.13-1.89-.49-2.8.64-.91,1.89-1.13,2.81-.49,1.45,1.02,35.55,25.6,37.57,86.3,2.01,60.15-38.01,152.93-38.41,153.86l-.52,1.2-1.31.02-377.96,4.04Z" fill="#2b2a25"/><path d="m854.25,219.69c.01,4.21-3.4,7.63-7.6,7.64l-62.9.15c-4.21.01-7.63-3.4-7.64-7.61h0c0-4.21,3.4-7.63,7.61-7.64l62.9-.15c4.21-.01,7.63,3.4,7.64,7.6h0Z" fill="#2b2a25"/><polygon points="538.63 29.6 385.53 151.87 435.5 158.25 550.32 28.54 538.63 29.6" fill="#555a6d"/><path d="m114.41,340.06s6.38-26.58,37.21-54.22c24.73-22.17,91.43-28.71,91.43-28.71l18.08-19.14s-87.31-2.3-128.65,28.71c-38.27,28.71-46.78,91.43-46.78,91.43l28.71-18.07Z" fill="#fff35a"/></svg>