<?xml version="1.0" encoding="UTF-8"?><svg id="Layer_1" xmlns="http://www.w3.org/2000/svg" viewBox="0 0 1380.46 407.08"><path d="m20.36,356.09l-9.74-122.76s56.51-54.56,148.09-81.84c91.58-27.28,339.05-54.56,339.05-54.56,0,0,169.53-85.74,229.93-91.58,60.41-5.85,177.32-17.54,350.74,35.07,173.42,52.61,220.19,52.61,220.19,52.61l50.66-7.79,5.85,44.82s25.33,15.59,25.33,52.61-13.64,144.19-13.64,144.19l-85.74,15.59s-208.48,18.32-496.88,23.38c-555.34,9.74-763.84-9.74-763.84-9.74Z" fill="#2b2a25"/><path d="m1355.13,130.06l-5.85-44.82-50.66,7.79s-46.77,0-220.19-52.61C905.01-12.19,788.09-.5,727.69,5.35c-60.41,5.85-229.93,91.58-229.93,91.58,0,0-247.47,27.28-339.05,54.56C67.12,178.77,10.61,233.33,10.61,233.33l9.74,122.76s31.3,2.92,101.92,5.94c-17.58-21.45-28.11-48.74-28.11-78.45,0-69.05,56.85-125.03,126.98-125.03s126.98,55.98,126.98,125.03c0,.16,0,.32,0,.47,0,.11,0,.21,0,.32,0,32.08-11.13,61.09-30.07,82.97,115.87,1.72,269.18,1.95,466.12-1.51,106.41-1.87,201.93-5.54,280.12-9.43-14.95-20.51-23.75-45.65-23.75-72.82,0-69.05,56.85-125.03,126.98-125.03s126.98,55.98,126.98,125.03c0,.16,0,.32,0,.47,0,.11,0,.21,0,.32,0,21.07-4.8,40.81-13.46,58.08h0l85.74-15.59s13.64-107.17,13.64-144.19-25.33-52.61-25.33-52.61Z" fill="#F9CC3D"/><circle cx="1169.84" cy="285.94" r="117.24" transform="translate(682 1386.99) rotate(-79.84)" fill="#777464"/><path d="m1213.94,178.02c34.08,20.51,64.14,54.35,65.76,96.99,2.22,58.39-23.93,124.62-122.7,121.96-15.59-.42-33.9-4.24-47.52-9.77,17.63,10.61,43.18,15.68,65.26,15.68,64.75,0,112.34-51.46,112.34-116.21,0-49.15-30.25-91.23-73.15-108.66Z" fill="#424038"/><circle cx="1169.84" cy="285.94" r="71.51" fill="#b7b29e"/><circle cx="1169.84" cy="285.94" r="65.69" transform="translate(622.78 1358.8) rotate(-76.72)" fill="#969283"/><circle cx="1169.84" cy="285.94" r="46.56" fill="#777464"/><path d="m1176.57,316.91c0,3.72-3.01,6.73-6.73,6.73h0c-3.72,0-6.73-3.01-6.73-6.73v-61.93c0-3.72,3.01-6.73,6.73-6.73h0c3.72,0,6.73,3.01,6.73,6.73v61.93Z" fill="#969283"/><path d="m1200.81,278.54c3.72,0,6.73,3.01,6.73,6.73h0c0,3.72-3.01,6.73-6.73,6.73h-61.93c-3.72,0-6.73-3.01-6.73-6.73h0c0-3.72,3.01-6.73,6.73-6.73h61.93Z" fill="#969283"/><path d="m1196.74,303.32c2.63,2.63,2.63,6.89,0,9.52h0c-2.63,2.63-6.89,2.63-9.52,0l-43.79-43.79c-2.63-2.63-2.63-6.89,0-9.52h0c2.63-2.63,6.89-2.63,9.52,0l43.79,43.79Z" fill="#969283"/><path d="m1186.74,259.05c2.63-2.63,6.89-2.63,9.52,0h0c2.63,2.63,2.63,6.89,0,9.52l-43.79,43.79c-2.63,2.63-6.89,2.63-9.52,0h0c-2.63-2.63-2.63-6.89,0-9.52l43.79-43.79Z" fill="#969283"/><path d="m1196.77,285.94c0,14.87-12.05,26.92-26.92,26.92s-26.92-12.05-26.92-26.92,12.06-26.92,26.92-26.92,26.92,12.06,26.92,26.92Z" fill="#969283"/><path d="m1063.69,280.19l9.98-7.76s1.11-36.59,37.14-63.75c32.9-24.8,73.18-20.51,73.18-20.51l3.88-7.76s-50.45-6.1-85.37,22.17c-42.06,34.05-38.81,77.61-38.81,77.61Z" fill="#969283" opacity=".4"/><circle cx="1169.85" cy="254.13" r="3.19" fill="#b7b29e"/><path d="m1195.21,263c0,1.76-1.43,3.19-3.19,3.19s-3.19-1.43-3.19-3.19,1.43-3.19,3.19-3.19,3.19,1.43,3.19,3.19Z" fill="#b7b29e"/><path d="m1205.74,285.46c0,1.76-1.43,3.19-3.19,3.19s-3.19-1.43-3.19-3.19,1.43-3.19,3.19-3.19,3.19,1.43,3.19,3.19Z" fill="#b7b29e"/><path d="m1196.32,309.57c0,1.76-1.43,3.19-3.19,3.19s-3.19-1.43-3.19-3.19,1.43-3.19,3.19-3.19,3.19,1.43,3.19,3.19Z" fill="#b7b29e"/><path d="m1172.76,317.89c0,1.76-1.43,3.19-3.19,3.19s-3.19-1.43-3.19-3.19,1.43-3.19,3.19-3.19,3.19,1.43,3.19,3.19Z" fill="#b7b29e"/><path d="m1150.58,308.18c0,1.76-1.43,3.19-3.19,3.19s-3.19-1.43-3.19-3.19,1.43-3.19,3.19-3.19,3.19,1.43,3.19,3.19Z" fill="#b7b29e"/><path d="m1141.71,285.73c0,1.76-1.43,3.19-3.19,3.19s-3.19-1.43-3.19-3.19,1.43-3.19,3.19-3.19,3.19,1.43,3.19,3.19Z" fill="#b7b29e"/><path d="m1150.58,263c0,1.76-1.43,3.19-3.19,3.19s-3.19-1.43-3.19-3.19,1.43-3.19,3.19-3.19,3.19,1.43,3.19,3.19Z" fill="#b7b29e"/><circle cx="1169.84" cy="285.94" r="14.78" fill="#b7b29e"/><circle cx="220.89" cy="289.84" r="117.24" transform="translate(-74.66 503.03) rotate(-88.49)" fill="#777464"/><path d="m264.98,181.92c34.08,20.51,64.14,54.35,65.76,96.99,2.22,58.39-23.93,124.62-122.7,121.96-15.59-.42-33.9-4.24-47.52-9.77,17.63,10.61,43.18,15.68,65.25,15.68,64.75,0,112.34-51.46,112.34-116.21,0-49.15-30.25-91.23-73.15-108.66Z" fill="#424038"/><circle cx="220.89" cy="289.84" r="71.51" fill="#b7b29e"/><circle cx="220.89" cy="289.84" r="65.69" transform="translate(-140.25 241.08) rotate(-45)" fill="#969283"/><circle cx="220.89" cy="289.84" r="46.56" transform="translate(-94.1 106.59) rotate(-22.5)" fill="#777464"/><path d="m227.62,320.8c0,3.72-3.01,6.73-6.73,6.73h0c-3.72,0-6.73-3.01-6.73-6.73v-61.93c0-3.72,3.01-6.73,6.73-6.73h0c3.72,0,6.73,3.01,6.73,6.73v61.93Z" fill="#969283"/><path d="m251.85,282.43c3.72,0,6.73,3.01,6.73,6.73h0c0,3.72-3.01,6.73-6.73,6.73h-61.93c-3.72,0-6.73-3.01-6.73-6.73h0c0-3.72,3.01-6.73,6.73-6.73h61.93Z" fill="#969283"/><path d="m247.78,307.21c2.63,2.63,2.63,6.89,0,9.52h0c-2.63,2.63-6.89,2.63-9.52,0l-43.79-43.79c-2.63-2.63-2.63-6.89,0-9.52h0c2.63-2.63,6.89-2.63,9.52,0l43.79,43.79Z" fill="#969283"/><path d="m237.79,262.95c2.63-2.63,6.89-2.63,9.52,0h0c2.63,2.63,2.63,6.89,0,9.52l-43.79,43.79c-2.63,2.63-6.89,2.63-9.52,0h0c-2.63-2.63-2.63-6.89,0-9.52l43.79-43.79Z" fill="#969283"/><path d="m247.81,289.84c0,14.87-12.05,26.92-26.92,26.92s-26.92-12.05-26.92-26.92,12.05-26.92,26.92-26.92,26.92,12.05,26.92,26.92Z" fill="#969283"/><path d="m114.73,284.09l9.98-7.76s1.11-36.59,37.14-63.75c32.9-24.8,73.18-20.51,73.18-20.51l3.88-7.76s-50.45-6.1-85.37,22.17c-42.06,34.05-38.81,77.61-38.81,77.61Z" fill="#969283" opacity=".4"/><path d="m224.08,258.03c0,1.76-1.43,3.19-3.19,3.19s-3.19-1.43-3.19-3.19,1.43-3.19,3.19-3.19,3.19,1.43,3.19,3.19Z" fill="#b7b29e"/><path d="m246.25,266.9c0,1.76-1.43,3.19-3.19,3.19s-3.19-1.43-3.19-3.19,1.43-3.19,3.19-3.19,3.19,1.43,3.19,3.19Z" fill="#b7b29e"/><circle cx="253.6" cy="289.35" r="3.19" fill="#b7b29e"/><path d="m247.36,313.47c0,1.76-1.43,3.19-3.19,3.19s-3.19-1.43-3.19-3.19,1.43-3.19,3.19-3.19,3.19,1.43,3.19,3.19Z" fill="#b7b29e"/><path d="m223.8,321.78c0,1.76-1.43,3.19-3.19,3.19s-3.19-1.43-3.19-3.19,1.43-3.19,3.19-3.19,3.19,1.43,3.19,3.19Z" fill="#b7b29e"/><path d="m201.63,312.08c0,1.76-1.43,3.19-3.19,3.19s-3.19-1.43-3.19-3.19,1.43-3.19,3.19-3.19,3.19,1.43,3.19,3.19Z" fill="#b7b29e"/><path d="m192.76,289.63c0,1.76-1.43,3.19-3.19,3.19s-3.19-1.43-3.19-3.19,1.43-3.19,3.19-3.19,3.19,1.43,3.19,3.19Z" fill="#b7b29e"/><path d="m201.63,266.9c0,1.76-1.43,3.19-3.19,3.19s-3.19-1.43-3.19-3.19,1.43-3.19,3.19-3.19,3.19,1.43,3.19,3.19Z" fill="#b7b29e"/><circle cx="220.89" cy="289.84" r="14.78" transform="translate(-100.59 461.45) rotate(-80.78)" fill="#b7b29e"/><path d="m499.84,96.08s45.19,19.48,74.8,20.26c29.61.78,357.62-10.13,380.99-17.92,23.37-7.79,74.02-43.63,74.02-43.63,0,0-60.77-26.49-156.6-34.28-95.83-7.79-179.2-9.35-179.2-9.35,0,0-44.41,9.35-87.26,31.16-42.85,21.81-106.74,53.76-106.74,53.76Z" fill="#2b2a25"/><path d="m506.92,92.71s41.01,16.01,68.83,16.71c27.82.7,335.99-9.13,357.95-16.15,21.96-7.02,69.54-39.32,69.54-39.32,0,0-57.1-23.87-147.13-30.9-90.04-7.02-171.37-9.62-171.37-9.62,0,0-37.61,7.14-80.92,29.09-44.86,22.74-96.9,50.19-96.9,50.19Z" fill="#97c1bf"/><polygon points="703.06 14.11 544.34 104.48 570.5 109.45 738.98 15.72 703.06 14.11" fill="#fff" opacity=".4"/><polygon points="620.75 108.7 767.6 17.21 775.35 17.64 650.61 107.88 620.75 108.7" fill="#fff" opacity=".4"/><path d="m313.62,137.85l109.12,77.94s62.35-31.18,257.21-52.61c121.08-13.32,510.53-40.92,510.53-40.92l-74.04-25.33s-572.88,40.92-578.73,40.92h-224.09Z" fill="#FFF35A"/><path d="m1032.64,170.98c-4.77,3.9-37.02,60.41-79.89,85.74-42.87,25.33-344.9,60.41-344.9,60.41l-23.38,17.54,424.79-21.44s-1.95-46.77,23.38-89.63c25.33-42.87,79.89-72.1,79.89-72.1h-33.13s-25.33,1.95-46.77,19.49Z" fill="#FFF35A"/><path d="m88.72,235.78c-3.06-11.1-78.05-2.33-78.05-2.33,0,0-10.68,2.7-10.68,31.65,0,18.78,15.59,38.98,15.59,38.98l35.64-2.6s40.55-54.6,37.49-65.71Z" fill="#97c1bf"/><path d="m16.54,239.73s-9.22,13.87-10.29,20.64c-1.07,6.77,2.83,29.77,2.83,29.77l10-1.1s-4.04-20.43-.49-28.08c6.42-13.84,27.44-24.81,27.44-24.81l-29.49,3.58Z" fill="#fff"/><path d="m20.37,356.28s31.3,2.93,101.92,5.94c-11.97-14.6-20.66-31.92-24.99-50.85H16.8l3.56,44.91Z" fill="#3f343a"/><path d="m318.08,367.53c115.87,1.72,269.18,1.94,466.12-1.51,106.41-1.87,201.93-5.54,280.12-9.43-9.73-13.35-16.83-28.67-20.62-45.23H345.44c-4.36,21.36-13.86,40.58-27.36,56.17Z" fill="#3f343a"/><path d="m1291.86,311.36c-2.26,11.07-5.91,21.56-10.78,31.28h0s85.74-15.59,85.74-15.59c0,0,.77-6.02,1.93-15.69h-76.9Z" fill="#3f343a"/><path d="m518.21,313.16c-.77,0-1.31-.02-1.62-.05-1.95-.22-3.75-1.8-5.65-4.98-11.87-19.81-27.76-105.84-20.62-123.69,7.94-19.86,246.57-164.96,256.72-171.13l2.02,3.33c-68.86,41.82-248.93,153.75-255.13,169.24-6.73,16.84,9.21,101.65,20.35,120.24,1.78,2.97,2.73,3.11,2.74,3.11,5.21.57,94.02-4.94,188.96-13,168.26-14.27,188.03-22.07,190.08-24.12,14.09-14.1,61.59-104.28,55.36-126.71-6.16-22.17-54.17-40.09-54.66-40.27l-1.55-.57,14.6-76.97,3.83.73-13.99,73.75c8.65,3.38,49.42,20.33,55.52,42.29,6.69,24.08-41.63,115.77-56.36,130.51-6.47,6.47-71.24,14.96-192.51,25.25-87.77,7.44-174.22,13.04-188.1,13.04Z" fill="#2b2a25"/><path d="m1081.47,75.48c3.36,8.32-3.9,19.09-16.2,24.06-12.31,4.97-25.01,2.26-28.37-6.06-3.36-8.32,3.9-19.09,16.2-24.06,12.31-4.97,25.01-2.26,28.37,6.06Z" fill="#2b2a25"/><polygon points="1349.28 85.24 1320.96 125.4 1355.13 130.06 1349.28 85.24" fill="#2b2a25"/></svg>