<?xml version="1.0" encoding="UTF-8"?><svg id="Layer_1" xmlns="http://www.w3.org/2000/svg" viewBox="0 0 1378.08 585.72"><path d="m116.05,255.21c.21,9.54-75.09,146.06-75.09,146.06l1302.44,4.01-99.72-142.54-1127.63-7.53h0Z" fill="#2b2a25"/><path d="m116.05,255.21s9.5-49.52,27.14-61.57c17.64-12.05,343.26-32.12,343.26-32.12,0,0,74.62-105.74,93.62-116.45,18.99-10.71,92.26-14.72,92.26-14.72l610.55-9.37s33.92-1.34,36.63,8.03c2.71,9.37,29.85,285.09,29.85,285.09l-77.34,2.68-44.77-68.26-196.73,13.38-61.05,164.63-518.29,1.34-82.76-167.31-252.36-5.35Z" fill="#f9cc3d"/><path d="m1364.28,294.03c-21.71-5.35-78.69-5.35-78.69-5.35,0,0-17.28-50.86-37.99-50.86-23.06,0-184.52,0-210.3,4.02-25.58,3.98-74.84,140.86-81.9,160.85l-482.49,5.01s-81.43-148.46-108.57-157.83c-27.14-9.37-251-9.37-270-1.34-18.99,8.03-24.42,40.15-24.42,40.15,0,0,245.05-2.98,251,0,22.24,11.15,104.47,140.54,104.47,140.54l556.28-1.34s62.96-134.1,82.76-137.86c19.44-3.69,147.89-8.03,157.39-2.68,33.98,19.15,90.9,127.15,100.4,136.52,9.5,9.37,46.13,4.02,52.91-1.34,6.78-5.35,1.28-125.5-10.85-128.49Z" fill="#636152"/><path d="m778.16,61.13c4.89,4.01-3.39,78.3-3.39,78.3,0,0-8.14,40.15-17.98,43.84-9.91,3.71-222.85,9.03-225.57,3.68-2.71-5.35,69.2-127.15,77.34-125.82,8.14,1.34,161.3-6.82,169.6,0Z" fill="#97c1bf"/><path d="m617.5,68.07c7.16,1.18,126.36-4.98,160.73-1.86-.23-2.72-.65-4.54-1.31-5.08-8.3-6.82-161.46,1.34-169.6,0-8.14-1.34-80.05,120.46-77.34,125.82.37.72,4.61,1.25,11.66,1.62,10.29-24.39,68.57-121.69,75.86-120.5Z" fill="#49473e"/><path d="m830.92,55.07c-6.49,5.7-15.81,118.49-12.54,124.74,3.89,7.44,171.44,4.46,179.58.45,8.14-4.02,28.49-37.54,29.85-44.2,1.36-6.66,10.27-83.2,0-84.29-13.53-1.43-189.27-3.38-196.88,3.31Z" fill="#97c1bf"/><path d="m838.53,61.13c7.15-6.27,163.04-2.67,193.27-1.3-.63-6.92-1.54-7.81-4-8.07-13.53-1.43-189.27-3.38-196.88,3.31-6.49,5.7-15.81,118.49-12.54,124.74.47.9,3.35,1.64,8.04,2.26.22-28.85,6.64-116.12,12.12-120.93Z" fill="#49473e"/><path d="m1070.73,49.18c-10.41,6.85,2.71,113.84,6.78,119.2,4.07,5.35,219.8,5.35,223.87,0,4.07-5.35-8.14-117.79-12.21-121.8-4.07-4.02-210.3-2.75-218.44,2.6Z" fill="#97c1bf"/><path d="m1076.64,55.11c7.16-4.71,173.73-1.49,215.02.94-1.26-7.64-1.69-8.67-2.5-9.47-4.07-4.02-210.3-2.75-218.44,2.6-10.41,6.85,2.71,113.84,6.78,119.2.48.63,3.93,1.19,9.63,1.68-5.12-29.93-18.9-109.42-10.51-114.94Z" fill="#49473e"/><path d="m140.47,224.39s3.62-19.15,18.09-22.72c14.47-3.57,322.91-24.09,322.91-24.09l-15.32,38.75-325.68,8.06Z" fill="#fff35a"/><rect x="451.62" y="204.35" width="861.1" height="12.49" fill="#fff35a"/><polygon points="971.72 418.5 437.15 418.5 468.81 411.36 952.73 411.36 971.72 418.5" fill="#7f7c6b"/><polygon points="352.13 263.24 89.82 263.24 105.35 256.1 342.81 256.1 352.13 263.24" fill="#7f7c6b"/><polygon points="1256.64 257.89 1028.71 257.89 1042.2 250.75 1248.54 250.75 1256.64 257.89" fill="#7f7c6b"/><polygon points="590.92 45.39 1308.2 36.08 1292.82 26.78 655.42 37.48 590.92 45.39" fill="#fff35a"/><polygon points="533.02 180.89 752.38 177.58 763.23 169.55 778.16 61.13 783.13 61.13 770.92 177.58 761.87 189.21 528.96 189.21 533.02 180.89" fill="#fff35a"/><polygon points="818.38 179.81 997.95 180.26 1027.35 137.55 1027.8 51.76 1032.68 51.76 1032.68 141.44 1005.64 189.21 814.34 190.07 818.38 179.81" fill="#fff35a"/><polygon points="1076.64 169.55 1290.56 169.55 1296.89 163.3 1283.33 46.85 1291.01 46.85 1308.2 167.32 1301.33 178.92 1082.07 176.69 1076.64 169.55" fill="#fff35a"/><rect x="787.65" y="393.74" width="173.67" height="4.02" fill="#49473e"/><path d="m792.48,169.39c-.32-.04-.64-.04-.95-.06l-4.02,34.48c.31.05.62.12.94.15,9.68,1.1,18.42-5.75,19.54-15.3,1.11-9.55-5.83-18.18-15.51-19.27Z" fill="#fff35a"/><path d="m1049.76,166.34c-.32.02-.63.07-.95.11l2.33,34.63c.32,0,.63,0,.95-.01,9.72-.64,17.08-8.93,16.43-18.52-.65-9.59-9.05-16.85-18.77-16.21Z" fill="#fff35a"/><path d="m535.31,399.13c-4.28,0-18.81-.94-26.18-13.06-8.26-13.58-11.01-32.09-11.12-32.87l-.02-.25-2.72-161.21.32-.51c8.77-13.74,86.04-134.43,96.97-141.17,11.02-6.8,189.67-8.2,210.01-8.34l2.19-.02-.14,2.15c-.2,3.02-1.72,16.39-3.83,34.9-5.01,44.06-13.41,117.81-12.46,128.09,1.35,14.65,1.37,181.8,1.37,188.91v2l-252.96,1.35c-.19.01-.68.04-1.42.04Zm-33.26-46.38c.25,1.6,3.07,18.93,10.57,31.26,6.27,10.31,18.95,11.11,22.69,11.11.72,0,1.15-.03,1.19-.03h.14s248.98-1.33,248.98-1.33c0-19.4-.09-172.93-1.35-186.55-.98-10.68,7.11-81.82,12.47-128.9,1.71-14.99,3.11-27.31,3.62-32.55-79.41.57-198.11,3.06-205.64,7.71-7.65,4.72-61.09,85.75-95.36,139.4l2.7,159.89Z" fill="#49473e"/><path d="m1048.83,241.91l-5.94-136.47v-.09c.97-19.23.51-51.61-4.83-56.65-7.43-7-37.26-6.45-68.84-5.86-11.99.22-24.4.45-36.48.31-25.49-.31-129.07,2.56-130.11,2.59l-.12-4.01c1.04-.03,104.74-2.9,130.28-2.59,12.02.14,24.39-.09,36.35-.31,33.85-.63,63.08-1.17,71.72,6.97,8.39,7.9,6.38,53.95,6.09,59.66l5.93,136.29-4.07.17Z" fill="#49473e"/><path d="m1339.86,231.12s-36.18-.89-39.8-.89-9.05,3.57-9.05,8.03,2.71,33.02,3.62,36.58c.9,3.57,6.33,7.14,12.66,7.14s37.99.89,37.99.89l-5.43-51.75Z" fill="#b52c1a"/><path d="m131.43,207.02s-2.71,7.14-6.33,14.28c-3.62,7.14-5.43,20.52-5.43,20.52l18.99-2.68s12.66-23.2,14.47-28.55c1.81-5.35-21.71-3.57-21.71-3.57Z" fill="#97c1bf"/><polygon points="1299.84 235.87 1303.08 275.45 1316.05 275.45 1312.81 235.47 1299.84 235.87" fill="#f23325"/><ellipse cx="245.01" cy="444.19" rx="143.47" ry="141.54" fill="#777464"/><path d="m298.96,313.9c41.71,24.76,78.5,65.61,80.48,117.09,2.71,70.49-29.28,150.44-150.15,147.23-19.08-.51-41.49-5.11-58.15-11.79,21.58,12.81,52.84,18.93,79.85,18.93,79.24,0,137.48-62.12,137.48-140.29,0-59.34-37.02-110.14-89.51-131.17Z" fill="#424038"/><ellipse cx="245.01" cy="444.19" rx="87.51" ry="86.33" fill="#b7b29e"/><ellipse cx="245.01" cy="444.19" rx="80.38" ry="79.3" fill="#969283"/><ellipse cx="245.01" cy="444.19" rx="56.98" ry="56.21" fill="#777464"/><path d="m253.24,481.57c0,4.49-3.69,8.13-8.24,8.13h0c-4.55,0-8.24-3.64-8.24-8.13v-74.76c0-4.49,3.69-8.13,8.24-8.13h0c4.55,0,8.24,3.64,8.24,8.13v74.76Z" fill="#969283"/><path d="m282.9,435.25c4.55,0,8.24,3.64,8.24,8.13h0c0,4.49-3.69,8.13-8.24,8.13h-75.79c-4.55,0-8.24-3.64-8.24-8.13h0c0-4.49,3.69-8.13,8.24-8.13h75.79Z" fill="#969283"/><path d="m277.92,465.16c3.22,3.17,3.22,8.32,0,11.49h0c-3.22,3.17-8.43,3.17-11.65,0l-53.59-52.87c-3.22-3.17-3.22-8.32,0-11.49h0c3.22-3.17,8.43-3.17,11.65,0l53.59,52.87Z" fill="#969283"/><path d="m265.68,411.72c3.22-3.17,8.43-3.17,11.65,0h0c3.22,3.17,3.22,8.32,0,11.49l-53.59,52.87c-3.22,3.17-8.43,3.17-11.65,0h0c-3.22-3.17-3.22-8.32,0-11.49l53.59-52.87Z" fill="#969283"/><ellipse cx="245.01" cy="444.19" rx="32.95" ry="32.5" fill="#969283"/><path d="m115.1,437.24l12.21-9.37s1.36-44.17,45.45-76.96c40.27-29.94,89.55-24.76,89.55-24.76l4.75-9.37s-61.73-7.36-104.47,26.77c-51.47,41.1-47.49,93.69-47.49,93.69Z" fill="#969283" opacity=".4"/><path d="m248.91,405.79c0,2.12-1.75,3.85-3.9,3.85s-3.9-1.72-3.9-3.85,1.75-3.85,3.9-3.85,3.9,1.72,3.9,3.85Z" fill="#b7b29e"/><path d="m276.04,416.5c0,2.13-1.75,3.85-3.9,3.85s-3.9-1.72-3.9-3.85,1.75-3.85,3.9-3.85,3.9,1.72,3.9,3.85Z" fill="#b7b29e"/><path d="m288.93,443.6c0,2.13-1.75,3.85-3.9,3.85s-3.9-1.72-3.9-3.85,1.75-3.85,3.9-3.85,3.9,1.72,3.9,3.85Z" fill="#b7b29e"/><path d="m277.4,472.71c0,2.13-1.75,3.85-3.9,3.85s-3.9-1.72-3.9-3.85,1.75-3.85,3.9-3.85,3.9,1.72,3.9,3.85Z" fill="#b7b29e"/><path d="m248.57,482.75c0,2.12-1.75,3.85-3.9,3.85s-3.9-1.72-3.9-3.85,1.75-3.85,3.9-3.85,3.9,1.72,3.9,3.85Z" fill="#b7b29e"/><path d="m221.43,471.04c0,2.13-1.75,3.85-3.9,3.85s-3.9-1.72-3.9-3.85,1.75-3.85,3.9-3.85,3.9,1.72,3.9,3.85Z" fill="#b7b29e"/><path d="m210.58,443.93c0,2.13-1.75,3.85-3.9,3.85s-3.9-1.72-3.9-3.85,1.75-3.85,3.9-3.85,3.9,1.72,3.9,3.85Z" fill="#b7b29e"/><path d="m221.43,416.5c0,2.13-1.75,3.85-3.9,3.85s-3.9-1.72-3.9-3.85,1.75-3.85,3.9-3.85,3.9,1.72,3.9,3.85Z" fill="#b7b29e"/><path d="m263.1,444.19c0,9.86-8.1,17.85-18.09,17.85s-18.09-7.99-18.09-17.85,8.1-17.85,18.09-17.85,18.09,7.99,18.09,17.85Z" fill="#b7b29e"/><ellipse cx="1154.15" cy="444.19" rx="143.47" ry="141.54" fill="#777464"/><path d="m1208.11,313.9c41.71,24.76,78.5,65.61,80.48,117.09,2.71,70.49-29.28,150.44-150.15,147.23-19.08-.51-41.49-5.11-58.15-11.79,21.58,12.81,52.84,18.93,79.85,18.93,79.24,0,137.48-62.12,137.48-140.29,0-59.34-37.02-110.14-89.51-131.17Z" fill="#424038"/><ellipse cx="1154.15" cy="444.19" rx="87.51" ry="86.33" fill="#b7b29e"/><ellipse cx="1154.15" cy="444.19" rx="80.38" ry="79.3" fill="#969283"/><ellipse cx="1154.15" cy="444.19" rx="56.98" ry="56.21" fill="#777464"/><path d="m1162.38,481.57c0,4.49-3.69,8.13-8.24,8.13h0c-4.55,0-8.24-3.64-8.24-8.13v-74.76c0-4.49,3.69-8.13,8.24-8.13h0c4.55,0,8.24,3.64,8.24,8.13v74.76Z" fill="#969283"/><path d="m1192.04,435.25c4.55,0,8.24,3.64,8.24,8.13h0c0,4.49-3.69,8.13-8.24,8.13h-75.78c-4.55,0-8.24-3.64-8.24-8.13h0c0-4.49,3.69-8.13,8.24-8.13h75.78Z" fill="#969283"/><path d="m1187.06,465.16c3.22,3.17,3.22,8.32,0,11.49h0c-3.22,3.17-8.43,3.17-11.65,0l-53.59-52.87c-3.22-3.17-3.22-8.32,0-11.49h0c3.22-3.17,8.43-3.17,11.65,0l53.59,52.87Z" fill="#969283"/><path d="m1174.82,411.72c3.22-3.17,8.43-3.17,11.65,0h0c3.22,3.17,3.22,8.32,0,11.49l-53.59,52.87c-3.22,3.17-8.43,3.17-11.65,0h0c-3.22-3.17-3.22-8.32,0-11.49l53.59-52.87Z" fill="#969283"/><ellipse cx="1154.15" cy="444.19" rx="32.95" ry="32.5" fill="#969283"/><path d="m1024.24,437.24l12.21-9.37s1.36-44.17,45.45-76.96c40.26-29.94,89.55-24.76,89.55-24.76l4.75-9.37s-61.73-7.36-104.47,26.77c-51.47,41.1-47.49,93.69-47.49,93.69Z" fill="#969283" opacity=".4"/><path d="m1158.05,405.79c0,2.12-1.75,3.85-3.9,3.85s-3.9-1.72-3.9-3.85,1.75-3.85,3.9-3.85,3.9,1.72,3.9,3.85Z" fill="#b7b29e"/><path d="m1185.19,416.5c0,2.13-1.75,3.85-3.9,3.85s-3.9-1.72-3.9-3.85,1.75-3.85,3.9-3.85,3.9,1.72,3.9,3.85Z" fill="#b7b29e"/><path d="m1198.08,443.6c0,2.13-1.75,3.85-3.9,3.85s-3.9-1.72-3.9-3.85,1.75-3.85,3.9-3.85,3.9,1.72,3.9,3.85Z" fill="#b7b29e"/><path d="m1186.54,472.71c0,2.13-1.75,3.85-3.9,3.85s-3.9-1.72-3.9-3.85,1.75-3.85,3.9-3.85,3.9,1.72,3.9,3.85Z" fill="#b7b29e"/><path d="m1157.71,482.75c0,2.12-1.75,3.85-3.9,3.85s-3.9-1.72-3.9-3.85,1.75-3.85,3.9-3.85,3.9,1.72,3.9,3.85Z" fill="#b7b29e"/><path d="m1130.58,471.04c0,2.13-1.75,3.85-3.9,3.85s-3.9-1.72-3.9-3.85,1.75-3.85,3.9-3.85,3.9,1.72,3.9,3.85Z" fill="#b7b29e"/><path d="m1119.72,443.93c0,2.13-1.75,3.85-3.9,3.85s-3.9-1.72-3.9-3.85,1.75-3.85,3.9-3.85,3.9,1.72,3.9,3.85Z" fill="#b7b29e"/><path d="m1130.58,416.5c0,2.13-1.75,3.85-3.9,3.85s-3.9-1.72-3.9-3.85,1.75-3.85,3.9-3.85,3.9,1.72,3.9,3.85Z" fill="#b7b29e"/><path d="m1172.24,444.19c0,9.86-8.1,17.85-18.09,17.85s-18.09-7.99-18.09-17.85,8.1-17.85,18.09-17.85,18.09,7.99,18.09,17.85Z" fill="#b7b29e"/><path d="m116.05,284.66s-16.72,22.31-23.05,53.54c-6.34,31.23-10.41,82.99-10.41,82.99H10s-8.65-7.14-9.8-16.06c-1.15-8.92,2.78-76.74,9.12-80.31,3.75-2.11,45.23-5.35,45.23-5.35l19.9-45.51,41.61,10.71Z" fill="#636152"/><path d="m593.04,132.66l4.32,44.44-11.76,1.03s-7.68-4.39-9.84-18.42c-2.46-15.99,6.42-24.93,6.42-24.93l10.86-2.12Z" fill="#636152"/><path d="m579.16,151.7l-47.04,18.29s-12.21,8.03-8.59,16.06c3.62,8.03,18.11,2.51,18.11,2.51l42.5-27.49-4.97-9.37Z" fill="#636152"/><path d="m1034.13,4.92c-5.66-4.19-13.24-4.83-16.28-4.9h0s-.13,0-.13,0c-.76-.02-1.22,0-1.22,0h-336.03c-1.36.89-12.66-1.34-19.45,8.03-4.52,6.25-12.21,25.88-12.21,25.88l26.68-.89s0-8.48,4.07-13.38c4.07-4.91,11.31-7.14,11.31-7.14h319.41c3.88.09,9.98.58,11.19,2.68,1.81,3.12,4.98,12.94,4.98,12.94l19.45-.89s-4.52-16.95-11.76-22.31Z" fill="#6d753f"/></svg>