<?xml version="1.0" encoding="UTF-8"?><svg id="Layer_1" xmlns="http://www.w3.org/2000/svg" viewBox="0 0 1437.66 487.16"><path d="m135.01,362.73l266.06,9.8,578.33-9.8,242.26-18.2s-1.4-162.48-5.6-158.26c-4.2,4.22-1037.64,5.62-1037.64,5.62l-46.78,83.94,3.37,86.9h0Z" fill="#2b2a25"/><path d="m380.59,373.7c0,62.66-50.8,113.46-113.46,113.46s-113.46-50.8-113.46-113.46,50.8-113.46,113.46-113.46,113.46,50.8,113.46,113.46Z" fill="#777464"/><path d="m309.81,269.27c32.98,19.85,62.08,52.59,63.64,93.86,2.15,56.51-23.16,120.6-118.74,118.02-15.09-.41-32.81-4.1-45.98-9.45,17.06,10.27,41.79,15.17,63.15,15.17,62.66,0,108.72-49.79,108.72-112.46,0-47.57-29.27-88.29-70.79-105.15Z" fill="#424038"/><path d="m336.34,373.7c0,38.22-30.98,69.2-69.2,69.2s-69.2-30.98-69.2-69.2,30.98-69.2,69.2-69.2,69.2,30.98,69.2,69.2Z" fill="#b7b29e"/><path d="m330.71,373.7c0,35.11-28.46,63.57-63.57,63.57s-63.57-28.46-63.57-63.57,28.46-63.57,63.57-63.57,63.57,28.46,63.57,63.57Z" fill="#969283"/><path d="m312.2,373.7c0,24.89-20.17,45.06-45.06,45.06s-45.06-20.17-45.06-45.06,20.17-45.06,45.06-45.06,45.06,20.17,45.06,45.06Z" fill="#777464"/><path d="m273.65,403.67c0,3.6-2.92,6.51-6.51,6.51h0c-3.6,0-6.52-2.92-6.52-6.51v-59.93c0-3.6,2.92-6.51,6.52-6.51h0c3.6,0,6.51,2.92,6.51,6.51v59.93Z" fill="#969283"/><path d="m297.1,366.54c3.6,0,6.51,2.92,6.51,6.51h0c0,3.6-2.92,6.51-6.51,6.51h-59.93c-3.6,0-6.51-2.92-6.51-6.51h0c0-3.6,2.92-6.51,6.51-6.51h59.93Z" fill="#969283"/><path d="m293.16,390.51c2.54,2.54,2.54,6.67,0,9.21h0c-2.54,2.54-6.67,2.54-9.21,0l-42.38-42.38c-2.54-2.54-2.54-6.67,0-9.21h0c2.54-2.54,6.67-2.54,9.21,0l42.38,42.38Z" fill="#969283"/><path d="m283.49,347.68c2.54-2.54,6.67-2.54,9.21,0h0c2.54,2.54,2.54,6.67,0,9.21l-42.38,42.38c-2.54,2.54-6.67,2.54-9.21,0h0c-2.54-2.54-2.54-6.67,0-9.21l42.38-42.38Z" fill="#969283"/><path d="m293.19,373.7c0,14.39-11.66,26.06-26.05,26.06s-26.06-11.67-26.06-26.06,11.67-26.05,26.06-26.05,26.05,11.67,26.05,26.05Z" fill="#969283"/><path d="m164.41,368.13l9.66-7.51s1.07-35.41,35.94-61.69c31.84-24,70.81-19.85,70.81-19.85l3.76-7.51s-48.82-5.9-82.62,21.46c-40.7,32.95-37.55,75.11-37.55,75.11Z" fill="#969283" opacity=".4"/><path d="m270.23,342.92c0,1.7-1.38,3.08-3.08,3.08s-3.08-1.38-3.08-3.08,1.38-3.08,3.08-3.08,3.08,1.38,3.08,3.08Z" fill="#b7b29e"/><path d="m291.68,351.5c0,1.7-1.38,3.08-3.08,3.08s-3.08-1.38-3.08-3.08,1.38-3.08,3.08-3.08,3.08,1.38,3.08,3.08Z" fill="#b7b29e"/><path d="m301.88,373.23c0,1.7-1.38,3.08-3.08,3.08s-3.08-1.38-3.08-3.08,1.38-3.08,3.08-3.08,3.08,1.38,3.08,3.08Z" fill="#b7b29e"/><path d="m292.76,396.57c0,1.7-1.38,3.08-3.08,3.08s-3.08-1.38-3.08-3.08,1.38-3.08,3.08-3.08,3.08,1.38,3.08,3.08Z" fill="#b7b29e"/><path d="m269.96,404.61c0,1.7-1.38,3.08-3.08,3.08s-3.08-1.38-3.08-3.08,1.38-3.08,3.08-3.08,3.08,1.38,3.08,3.08Z" fill="#b7b29e"/><path d="m248.5,395.23c0,1.7-1.38,3.08-3.08,3.08s-3.08-1.38-3.08-3.08,1.38-3.08,3.08-3.08,3.08,1.38,3.08,3.08Z" fill="#b7b29e"/><circle cx="236.83" cy="373.5" r="3.08" fill="#b7b29e"/><path d="m248.5,351.5c0,1.7-1.38,3.08-3.08,3.08s-3.08-1.38-3.08-3.08,1.38-3.08,3.08-3.08,3.08,1.38,3.08,3.08Z" fill="#b7b29e"/><path d="m281.44,373.7c0,7.9-6.4,14.31-14.3,14.31s-14.31-6.41-14.31-14.31,6.4-14.31,14.31-14.31,14.3,6.41,14.3,14.31Z" fill="#b7b29e"/><circle cx="1096.98" cy="365.86" r="113.46" transform="translate(-54.71 261.82) rotate(-13.28)" fill="#777464"/><path d="m1139.65,261.43c32.98,19.85,62.08,52.59,63.64,93.86,2.15,56.51-23.15,120.6-118.74,118.02-15.09-.41-32.81-4.1-45.98-9.45,17.06,10.27,41.79,15.17,63.15,15.17,62.66,0,108.72-49.79,108.72-112.46,0-47.57-29.27-88.29-70.79-105.15Z" fill="#424038"/><path d="m1166.18,365.86c0,38.22-30.98,69.2-69.2,69.2s-69.2-30.98-69.2-69.2,30.98-69.2,69.2-69.2,69.2,30.98,69.2,69.2Z" fill="#b7b29e"/><circle cx="1096.98" cy="365.86" r="63.57" transform="translate(560.13 1390.08) rotate(-80.78)" fill="#969283"/><circle cx="1096.98" cy="365.86" r="45.06" transform="translate(560.13 1390.08) rotate(-80.78)" fill="#777464"/><path d="m1103.5,395.83c0,3.6-2.92,6.51-6.51,6.51h0c-3.6,0-6.51-2.92-6.51-6.51v-59.93c0-3.6,2.92-6.51,6.51-6.51h0c3.6,0,6.51,2.92,6.51,6.51v59.93Z" fill="#969283"/><path d="m1126.95,358.7c3.6,0,6.51,2.92,6.51,6.51h0c0,3.6-2.92,6.51-6.51,6.51h-59.93c-3.6,0-6.51-2.92-6.51-6.51h0c0-3.6,2.92-6.51,6.51-6.51h59.93Z" fill="#969283"/><path d="m1123.01,382.67c2.54,2.54,2.54,6.67,0,9.21h0c-2.54,2.54-6.67,2.54-9.21,0l-42.38-42.38c-2.54-2.54-2.54-6.67,0-9.21h0c2.54-2.54,6.67-2.54,9.21,0l42.38,42.38Z" fill="#969283"/><path d="m1113.34,339.84c2.54-2.54,6.67-2.54,9.21,0h0c2.54,2.54,2.54,6.67,0,9.21l-42.38,42.38c-2.54,2.54-6.67,2.54-9.21,0h0c-2.54-2.54-2.54-6.67,0-9.21l42.38-42.38Z" fill="#969283"/><path d="m1123.04,365.86c0,14.39-11.67,26.05-26.05,26.05s-26.06-11.67-26.06-26.05,11.67-26.06,26.06-26.06,26.05,11.67,26.05,26.06Z" fill="#969283"/><path d="m994.25,360.29l9.66-7.51s1.07-35.41,35.94-61.69c31.84-24,70.81-19.85,70.81-19.85l3.76-7.51s-48.82-5.9-82.62,21.46c-40.7,32.95-37.55,75.11-37.55,75.11Z" fill="#969283" opacity=".4"/><path d="m1100.07,335.08c0,1.7-1.38,3.08-3.08,3.08s-3.09-1.38-3.09-3.08,1.38-3.08,3.09-3.08,3.08,1.38,3.08,3.08Z" fill="#b7b29e"/><path d="m1121.53,343.66c0,1.7-1.38,3.08-3.08,3.08s-3.08-1.38-3.08-3.08,1.38-3.08,3.08-3.08,3.08,1.38,3.08,3.08Z" fill="#b7b29e"/><path d="m1131.72,365.39c0,1.7-1.38,3.08-3.08,3.08s-3.08-1.38-3.08-3.08,1.38-3.08,3.08-3.08,3.08,1.38,3.08,3.08Z" fill="#b7b29e"/><path d="m1122.6,388.73c0,1.7-1.38,3.08-3.08,3.08s-3.08-1.38-3.08-3.08,1.38-3.08,3.08-3.08,3.08,1.38,3.08,3.08Z" fill="#b7b29e"/><path d="m1099.8,396.77c0,1.7-1.38,3.08-3.08,3.08s-3.08-1.38-3.08-3.08,1.38-3.08,3.08-3.08,3.08,1.38,3.08,3.08Z" fill="#b7b29e"/><circle cx="1075.26" cy="387.39" r="3.08" fill="#b7b29e"/><path d="m1069.76,365.66c0,1.7-1.38,3.08-3.08,3.08s-3.08-1.38-3.08-3.08,1.38-3.08,3.08-3.08,3.08,1.38,3.08,3.08Z" fill="#b7b29e"/><circle cx="1075.26" cy="343.66" r="3.08" fill="#b7b29e"/><path d="m1111.29,365.86c0,7.9-6.4,14.31-14.31,14.31s-14.31-6.41-14.31-14.31,6.4-14.31,14.31-14.31,14.31,6.4,14.31,14.31Z" fill="#b7b29e"/><path d="m135.01,362.73H46.79s-28.14-16.8-28.08-51.81c.07-35.01,15.47-65.81,15.47-65.81,0,0,0-30.81,33.61-54.61,33.61-23.81,61.81-46.21,173.04-51.81,111.23-5.6,140.64-7,140.64-7,0,0,138.63-119.03,175.04-121.83,36.41-2.8,378.09-15.4,389.29-7,11.2,8.4,19.6,53.21,19.6,103.62s0,32.21,0,32.21c0,0,418.69-19.6,424.3-8.4,5.6,11.2,9.8,147.03,9.8,147.03l-49.01,49.01-128.83,18.2s-11.15-56.09-47.61-82.62c-42.99-31.28-125.43-36.05-164.64,7.36-45.57,50.45-37.92,93.98-37.92,93.98l-570.42,9.28s-8.28-66.67-53.64-103.26c-37.13-29.95-131.2-38.17-173.21,10.09-34.46,39.59-39.21,83.37-39.21,83.37Z" fill="#F9CC3D"/><path d="m75.53,362.86s6.27-67.7,33.57-100.6c29.43-35.47,57.41-40.26,97.32-47.26,39.91-7,76.32-2.8,76.32-2.8l-7.7,9.1s-45.16-4.2-88.92,16.45c-36.25,17.11-51.11,39.56-62.31,67.56-11.2,28.01-15.2,57.65-15.2,57.65l-33.08-.1Z" fill="#FFF35A"/><path d="m914.32,362.86s6.27-67.7,33.58-100.6c29.43-35.47,57.41-40.26,97.32-47.26,39.91-7,76.32-2.8,76.32-2.8l-7.7,9.1s-45.16-4.2-88.92,16.45c-36.25,17.11-51.11,39.56-62.31,67.56-11.2,28.01-15.2,57.65-15.2,57.65l-33.08-.1Z" fill="#FFF35A"/><polygon points="1377.1 180.69 387.07 189.44 389.17 169.48 1377.1 144.28 1377.1 180.69" fill="#FFF35A"/><polygon points="933.9 325.89 431.18 330.17 426.98 320.72 933.9 307.9 933.9 325.89" fill="#FFF35A"/><polygon points="1398.88 272.17 1218 280.81 1210.09 272.11 1398.7 258.77 1398.88 272.17" fill="#FFF35A"/><path d="m84.08,188.39l36.76,4.2s21.53-26.78,75.09-31.51c53.56-4.73,183.79-12.6,183.79-12.6l-2.63-6.83s-79.29,1.05-157.54,5.25c-47.55,2.55-86.12,9.45-105.55,19.43-19.43,9.98-29.93,22.06-29.93,22.06Z" fill="#FFF35A"/><path d="m34.19,245.1h51.46s40.96-38.86,37.81-49.36c-3.15-10.5-64.06-7.35-64.06-7.35,0,0-12.6,5.25-21.01,21-8.4,15.75-4.2,35.71-4.2,35.71Z" fill="#97c1bf"/><path d="m61.5,195.21s-9.45,5.78-13.13,15.23c-3.68,9.45-4.2,27.31-4.2,27.31l14.18.52s2.09-13.67,6.3-21.53c7.88-14.7,23.63-20.48,23.63-20.48l-26.78-1.05Z" fill="#fff"/><path d="m1395.37,187.08s-41.67.96-45.99.96-10.8,4.32-10.8,9.72,3.24,39.96,4.32,44.28c1.08,4.32,7.56,8.64,15.12,8.64s40.71.99,40.71.99l-3.37-64.59Z" fill="#b52c1a"/><polygon points="1349.12 194.87 1352.99 242.77 1368.47 242.77 1364.6 194.39 1349.12 194.87" fill="#f23325"/><path d="m689.54,203.79c0,3.48-2.82,6.3-6.3,6.3h-39.21c-3.48,0-6.3-2.82-6.3-6.3h0c0-3.48,2.82-6.3,6.3-6.3h39.21c3.48,0,6.3,2.82,6.3,6.3h0Z" fill="#49473e"/><path d="m900.99,198.19c0,3.48-2.82,6.3-6.3,6.3h-39.21c-3.48,0-6.3-2.82-6.3-6.3h0c0-3.48,2.82-6.3,6.3-6.3h39.21c3.48,0,6.3,2.82,6.3,6.3h0Z" fill="#49473e"/><path d="m730.5,347.02c-.04-1.53-3.53-153.6-6.3-208.94-2.77-55.35-7.31-123.21-7.35-123.89l4.19-.28c.05.68,4.58,68.57,7.35,123.96,2.77,55.4,6.27,207.52,6.3,209.05l-4.2.1Z" fill="#49473e"/><path d="m438.05,354.35l-.47-1.49c-.11-.36-11.63-36.63-27.99-57.08l-29.91-37.38.04-.8c.21-4.01,5.41-98.42,17.11-117.56,11.62-19.02,141.04-118.27,155.56-122.74,14.52-4.47,377.31-9.55,380.8-9.55,3.21,0,7.21,0,15.75,122.21,4.15,59.46,7.32,119.69,7.35,120.29l.08,1.6-1.52.51s-8.99,4.02-21.81,36.59c-13.37,33.93-15.6,55.92-15.62,56.14l-.18,1.87-1.88.03-477.33,7.37Zm-54.09-97.33l28.9,36.13c15.13,18.91,25.85,49.74,28.24,56.95l472.37-7.3c.81-6.05,4.15-26.18,15.67-55.41,11.04-28.02,19.51-36.03,22.89-38.24-4.76-90.57-13.79-226.01-19.63-237.19-19.08.23-365.8,5.36-378.78,9.35-13.58,4.18-142.38,103.18-153.21,120.92-10.6,17.35-15.92,105.44-16.45,114.8Z" fill="#49473e"/><path d="m97.21,257.7s-54.61-7.35-70.37,0c-15.75,7.35-22.06,17.85-18.91,31.51,3.15,13.65,12.6,50.41,12.6,50.41h16.8s-15.72-58.03-7.35-65.11c13.65-11.55,50.41-9.45,50.41-9.45l16.8-7.35Z" fill="#97c1bf" opacity=".4"/><polygon points="1353.29 302.86 1371.14 282.91 1428.91 280.81 1429.96 298.66 1353.29 302.86" fill="#97c1bf" opacity=".4"/><path d="m488.96,109.5l-9.79,1.93s-5.81,5.97-6.14,16.8l-38.94,15.35s-11,7.33-7.74,14.66c3.26,7.33,16.31,2.29,16.31,2.29l31.97-20.97c2.71,8.58,7.61,11.45,7.61,11.45l10.6-.94-3.89-40.58Z" fill="#636152"/><path d="m567.01,30.85c-21.07,10.01-134.93,103.9-134.93,103.9,0,0-8.94,9.38-4.4,15.13,7.6,9.64,18.9,7.7,18.9,7.7,0,0,215.65-2.8,224.75-4.9,9.1-2.1,23.1-18.9,24.51-23.81,1.4-4.9,3.03-91.71,0-98.02-2.89-6.02-128.83,0-128.83,0Z" fill="#97c1bf"/><path d="m436.28,144.67s113.86-93.88,134.93-103.9c0,0,106.09-5.07,125.75-1.25-.27-4.53-.63-7.66-1.12-8.68-2.89-6.02-128.83,0-128.83,0-21.07,10.01-134.93,103.9-134.93,103.9,0,0-8.94,9.38-4.4,15.13,1.06,1.35,2.2,2.45,3.36,3.38,1.33-4.46,5.24-8.58,5.24-8.58Z" fill="#49473e"/><path d="m746.95,35.47v92.71s-.77,7.86,5.53,12.76c6.3,4.9,15.48,4.74,15.48,4.74h126.73s10.1-.04,13.6-6.34c3.5-6.3,2.51-10.46,2.51-10.46V31.55s.19-7.39-6.5-9.27c-6.53-1.83-14.5-1.23-14.5-1.23l-121.72-.42s-9.76.73-14.11,3.53c-7.02,4.51-7,11.3-7,11.3Z" fill="#97c1bf"/><path d="m757.45,142.95V50.24s-.02-12.07,7-16.59c4.35-2.8,71.45-4.33,71.45-4.33,0,0,68.94-1.93,74.33-1.15,0,0,.75-4.01-5.95-5.89-6.53-1.83-14.5-1.23-14.5-1.23l-121.72-.42s-9.75.73-14.11,3.53c-7.02,4.51-7,11.3-7,11.3v92.71s-.77,7.86,5.53,12.76c1.54,1.19,3.24,2.08,4.95,2.75,0-.47.03-.74.03-.74Z" fill="#49473e"/><path d="m20,245.84s-24.55,8.84-19.25,51.54c6.01,48.47,19.25,65.47,19.25,65.47h61.61s1.46-46.55,10.96-70.21c12.15-30.27,39.08-48.45,39.08-48.45-4.2,1.46-89.24-2.74-111.64,1.65Z" fill="#72726f"/><path d="m1369.06,274.62c-10.98,1.77-36.61,34.12-37.32,39.1-.71,4.98,9.6,32.34,11.02,33.05,1.42.71,68.24,1.78,70.73,0,2.49-1.78,24.17-29.14,24.17-29.14v-45.85s-57.58,1.07-68.59,2.84Z" fill="#72726f"/></svg>