<?xml version="1.0" encoding="UTF-8"?><svg id="Layer_1" xmlns="http://www.w3.org/2000/svg" viewBox="0 0 1417.72 545.67"><polygon points="129.3 468.34 364.59 461.95 756.52 378.83 978.41 470.9 1226.49 468.34 1274.28 424.87 1199.37 268.86 206.6 294.43 66.36 394.18 129.3 468.34" fill="#2b2a25"/><circle cx="247.33" cy="441.13" r="104.54" fill="#777464"/><path d="m286.65,344.91c30.39,18.29,57.19,48.46,58.64,86.48,1.98,52.07-21.33,111.12-109.4,108.74-13.9-.37-30.23-3.78-42.37-8.71,15.72,9.46,38.5,13.98,58.18,13.98,57.73,0,100.17-45.88,100.17-103.61,0-43.83-26.97-81.35-65.22-96.88Z" fill="#424038"/><path d="m311.09,441.13c0,35.21-28.55,63.76-63.76,63.76s-63.76-28.55-63.76-63.76,28.55-63.76,63.76-63.76,63.76,28.55,63.76,63.76Z" fill="#b7b29e"/><path d="m305.9,441.13c0,32.35-26.22,58.57-58.57,58.57s-58.57-26.22-58.57-58.57,26.22-58.57,58.57-58.57,58.57,26.22,58.57,58.57Z" fill="#969283"/><path d="m288.85,441.13c0,22.93-18.59,41.52-41.52,41.52s-41.52-18.59-41.52-41.52,18.59-41.52,41.52-41.52,41.52,18.59,41.52,41.52Z" fill="#777464"/><path d="m253.33,468.74c0,3.31-2.69,6-6,6h0c-3.31,0-6-2.69-6-6v-55.22c0-3.31,2.69-6,6-6h0c3.31,0,6,2.69,6,6v55.22Z" fill="#969283"/><path d="m274.94,434.53c3.31,0,6,2.69,6,6h0c0,3.31-2.69,6-6,6h-55.22c-3.31,0-6-2.69-6-6h0c0-3.31,2.69-6,6-6h55.22Z" fill="#969283"/><path d="m271.31,456.62c2.34,2.34,2.34,6.14,0,8.49h0c-2.34,2.34-6.14,2.34-8.49,0l-39.05-39.05c-2.34-2.34-2.34-6.15,0-8.49h0c2.34-2.34,6.14-2.34,8.49,0l39.05,39.05Z" fill="#969283"/><path d="m262.4,417.15c2.34-2.34,6.14-2.34,8.49,0h0c2.34,2.34,2.34,6.15,0,8.49l-39.05,39.05c-2.34,2.34-6.14,2.34-8.49,0h0c-2.34-2.34-2.34-6.15,0-8.49l39.05-39.05Z" fill="#969283"/><path d="m271.34,441.13c0,13.26-10.75,24.01-24.01,24.01s-24.01-10.75-24.01-24.01,10.75-24.01,24.01-24.01,24.01,10.75,24.01,24.01Z" fill="#969283"/><path d="m152.68,436l8.9-6.92s.99-32.62,33.12-56.84c29.34-22.12,65.25-18.29,65.25-18.29l3.46-6.92s-44.98-5.44-76.12,19.77c-37.5,30.36-34.6,69.2-34.6,69.2Z" fill="#969283" opacity=".4"/><path d="m250.17,412.77c0,1.57-1.27,2.84-2.84,2.84s-2.84-1.27-2.84-2.84,1.27-2.84,2.84-2.84,2.84,1.27,2.84,2.84Z" fill="#b7b29e"/><path d="m269.95,420.68c0,1.57-1.27,2.84-2.84,2.84s-2.84-1.27-2.84-2.84,1.27-2.84,2.84-2.84,2.84,1.27,2.84,2.84Z" fill="#b7b29e"/><path d="m279.34,440.7c0,1.57-1.27,2.84-2.84,2.84s-2.84-1.27-2.84-2.84,1.27-2.84,2.84-2.84,2.84,1.27,2.84,2.84Z" fill="#b7b29e"/><path d="m270.93,462.2c0,1.57-1.27,2.84-2.84,2.84s-2.84-1.27-2.84-2.84,1.27-2.84,2.84-2.84,2.84,1.27,2.84,2.84Z" fill="#b7b29e"/><path d="m249.93,469.61c0,1.57-1.27,2.84-2.84,2.84s-2.84-1.27-2.84-2.84,1.27-2.84,2.84-2.84,2.84,1.27,2.84,2.84Z" fill="#b7b29e"/><path d="m230.16,460.96c0,1.57-1.27,2.84-2.84,2.84s-2.84-1.27-2.84-2.84,1.27-2.84,2.84-2.84,2.84,1.27,2.84,2.84Z" fill="#b7b29e"/><path d="m222.25,440.95c0,1.57-1.27,2.84-2.84,2.84s-2.84-1.27-2.84-2.84,1.27-2.84,2.84-2.84,2.84,1.27,2.84,2.84Z" fill="#b7b29e"/><path d="m230.16,420.68c0,1.57-1.27,2.84-2.84,2.84s-2.84-1.27-2.84-2.84,1.27-2.84,2.84-2.84,2.84,1.27,2.84,2.84Z" fill="#b7b29e"/><path d="m260.51,441.13c0,7.28-5.9,13.18-13.18,13.18s-13.18-5.9-13.18-13.18,5.9-13.18,13.18-13.18,13.18,5.9,13.18,13.18Z" fill="#b7b29e"/><circle cx="1107.95" cy="441.13" r="104.54" fill="#777464"/><path d="m1147.26,344.91c30.39,18.29,57.19,48.46,58.64,86.48,1.98,52.07-21.33,111.12-109.4,108.74-13.9-.37-30.23-3.78-42.37-8.71,15.72,9.46,38.5,13.98,58.18,13.98,57.73,0,100.17-45.88,100.17-103.61,0-43.83-26.97-81.35-65.22-96.88Z" fill="#424038"/><path d="m1171.71,441.13c0,35.21-28.55,63.76-63.76,63.76s-63.76-28.55-63.76-63.76,28.55-63.76,63.76-63.76,63.76,28.55,63.76,63.76Z" fill="#b7b29e"/><path d="m1166.52,441.13c0,32.35-26.22,58.57-58.57,58.57s-58.57-26.22-58.57-58.57,26.22-58.57,58.57-58.57,58.57,26.22,58.57,58.57Z" fill="#969283"/><path d="m1149.47,441.13c0,22.93-18.59,41.52-41.52,41.52s-41.52-18.59-41.52-41.52,18.59-41.52,41.52-41.52,41.52,18.59,41.52,41.52Z" fill="#777464"/><path d="m1113.95,468.74c0,3.31-2.69,6-6,6h0c-3.31,0-6-2.69-6-6v-55.22c0-3.31,2.69-6,6-6h0c3.32,0,6,2.69,6,6v55.22Z" fill="#969283"/><path d="m1135.56,434.53c3.31,0,6,2.69,6,6h0c0,3.31-2.69,6-6,6h-55.22c-3.31,0-6-2.69-6-6h0c0-3.31,2.69-6,6-6h55.22Z" fill="#969283"/><path d="m1131.93,456.62c2.34,2.34,2.34,6.14,0,8.49h0c-2.34,2.34-6.14,2.34-8.49,0l-39.05-39.05c-2.34-2.34-2.34-6.15,0-8.49h0c2.34-2.34,6.14-2.34,8.49,0l39.05,39.05Z" fill="#969283"/><path d="m1123.01,417.15c2.34-2.34,6.14-2.34,8.49,0h0c2.34,2.34,2.34,6.15,0,8.49l-39.05,39.05c-2.34,2.34-6.14,2.34-8.49,0h0c-2.34-2.34-2.34-6.15,0-8.49l39.05-39.05Z" fill="#969283"/><path d="m1131.95,441.13c0,13.26-10.75,24.01-24.01,24.01s-24.01-10.75-24.01-24.01,10.75-24.01,24.01-24.01,24.01,10.75,24.01,24.01Z" fill="#969283"/><path d="m1013.29,436l8.9-6.92s.99-32.62,33.12-56.84c29.34-22.12,65.25-18.29,65.25-18.29l3.46-6.92s-44.98-5.44-76.12,19.77c-37.5,30.36-34.6,69.2-34.6,69.2Z" fill="#969283" opacity=".4"/><path d="m1110.79,412.77c0,1.57-1.27,2.84-2.84,2.84s-2.84-1.27-2.84-2.84,1.27-2.84,2.84-2.84,2.84,1.27,2.84,2.84Z" fill="#b7b29e"/><path d="m1130.56,420.68c0,1.57-1.27,2.84-2.84,2.84s-2.84-1.27-2.84-2.84,1.27-2.84,2.84-2.84,2.84,1.27,2.84,2.84Z" fill="#b7b29e"/><path d="m1139.96,440.7c0,1.57-1.27,2.84-2.84,2.84s-2.84-1.27-2.84-2.84,1.27-2.84,2.84-2.84,2.84,1.27,2.84,2.84Z" fill="#b7b29e"/><path d="m1131.55,462.2c0,1.57-1.27,2.84-2.84,2.84s-2.84-1.27-2.84-2.84,1.27-2.84,2.84-2.84,2.84,1.27,2.84,2.84Z" fill="#b7b29e"/><path d="m1110.54,469.61c0,1.57-1.27,2.84-2.84,2.84s-2.84-1.27-2.84-2.84,1.27-2.84,2.84-2.84,2.84,1.27,2.84,2.84Z" fill="#b7b29e"/><path d="m1090.77,460.96c0,1.57-1.27,2.84-2.84,2.84s-2.84-1.27-2.84-2.84,1.27-2.84,2.84-2.84,2.84,1.27,2.84,2.84Z" fill="#b7b29e"/><path d="m1082.86,440.95c0,1.57-1.27,2.84-2.84,2.84s-2.84-1.27-2.84-2.84,1.27-2.84,2.84-2.84,2.84,1.27,2.84,2.84Z" fill="#b7b29e"/><path d="m1090.77,420.68c0,1.57-1.27,2.84-2.84,2.84s-2.84-1.27-2.84-2.84,1.27-2.84,2.84-2.84,2.84,1.27,2.84,2.84Z" fill="#b7b29e"/><path d="m1121.13,441.13c0,7.28-5.9,13.18-13.18,13.18s-13.18-5.9-13.18-13.18,5.9-13.18,13.18-13.18,13.18,5.9,13.18,13.18Z" fill="#b7b29e"/><path d="m129.3,468.34s-102.3-11.51-112.53-25.57c-10.23-14.07,2.56-21.74,2.56-21.74,0,0-10.23-113.81,1.28-129.16,11.51-15.34,74.17-63.94,167.52-85.68,60.61-14.11,101.02-14.07,101.02-14.07,0,0,61.38-33.25,140.67-74.17,79.28-40.92,132.9-87.98,263.43-99.74,141.94-12.79,292.84-26.85,445.01-11.51,152.17,15.35,185.42,28.13,185.42,28.13,0,0,26.85,42.2,51.15,129.16,24.3,86.96,25.57,117.65,25.57,117.65l-1.28,31.97,16.63,17.9s6.39,44.76-3.84,67.77c-10.23,23.02-39.64,49.87-39.64,49.87l-145.78,19.18s-2.95-57.88-11.51-79.28c-12.79-31.97-53.07-63.94-100.38-62.66-48.59,1.31-99.11,15.98-115.73,74.81-12.99,45.98-8.95,69.69-8.95,69.69l-625.32-8.95s1.92-35.8-10.87-70.33c-12.32-33.25-44.23-64.57-91.43-67.77-65.86-4.48-101.02,25.58-117.65,57.54-16.62,31.97-15.35,86.96-15.35,86.96Z" fill="#f9cc3d"/><path d="m319.32,211.48s128.02-66.56,201.15-112.71c85.81-54.13,213.13-61.78,292.12-70.33,133.85-14.49,429.76-1.89,454.05,16.01,24.3,17.9,59.16,85.44,46.37,95.67-12.79,10.23-17.61,16.2-36.79,20.03-19.18,3.84-299.16,28.08-477.28,28.56-317.14.85-500.15,41.79-479.63,22.76Z" fill="#2b2a25"/><path d="m552.57,100.06c-2.23-4.47-40.92,14.49-94.42,47.53-39.17,24.19-76.94,53.07-76.94,53.07l12.79,11.08,52.64-5.33s9.81-10.7,29.2-32.18c47.31-52.43,79.29-69.06,76.73-74.17Z" fill="#97c1bf"/><path d="m537.23,142.68l-40.92,58.82,242.33-10.66,35.81-148.98s-62.02,6.39-106.78,14.71c-44.76,8.31-74.17,24.72-74.17,24.72l-56.27,61.38Z" fill="#97c1bf"/><path d="m819.2,39.95l-14.71,148.98,147.91-4.48,126.17-7.67s-6.18-51.79-12.58-82.48c-6.39-30.69-15.34-56.91-15.34-56.91,0,0-25.58-2.56-101.02-3.2-75.45-.64-130.43,5.75-130.43,5.75Z" fill="#97c1bf"/><path d="m1092.43,38.46c-13.51,2.19.64,30.69,3.84,53.07,3.2,22.38,5.12,56.27,13.43,60.74,8.31,4.48,45.49,3.1,81.84,1.92,58.82-1.92,96.55-12.15,98.47-23.02,1.92-10.87-12.57-54.14-40.07-72.04-27.49-17.9-133.84-24.51-157.5-20.67Z" fill="#97c1bf"/><path d="m279.03,247.21c-11.51,7.67-103.93,38.08-103.93,38.08l1089.63-30.69,44.31-78.35L279.03,247.21Z" fill="#fff35a"/><polygon points="382.6 391.07 948.43 396.18 752.79 369.33 434.39 369.97 382.6 391.07" fill="#fff35a"/><path d="m129.3,468.34s-.57-24.58,4.02-50.42H19.06c.17,2,.27,3.11.27,3.11,0,0-12.79,7.67-2.56,21.74,10.23,14.07,112.53,25.57,112.53,25.57Z" fill="#686866"/><path d="m1221.59,417.92c3.54,23.81,4.9,50.42,4.9,50.42l145.78-19.18s15.82-14.45,28.29-31.24h-178.97Z" fill="#686866"/><path d="m360.96,417.92c4.69,24.29,3.63,44.03,3.63,44.03l625.32,8.95s-3.06-17.99,4.72-52.98H360.96Z" fill="#686866"/><path d="m119.42,301.13c-3.16-9.53-100.98-5.05-100.98-5.05,0,0-12.71,2.96-15.97,21.31-10.81,60.75,17.41,69.64,17.41,69.64l22.85.42s79.85-76.79,76.7-86.32Z" fill="#97c1bf"/><path d="m26.75,305.06s-11.9,13.45-14.22,20.69c-2.33,7.24-2.59,33.36-2.59,33.36l10.34.78s-.35-23.31,4.66-31.04c9.05-13.97,33.62-23.54,33.62-23.54l-31.81-.26Z" fill="#fff"/><path d="m1394.63,241.37s-46.28-2.76-50.84-2.76-11.38,5.03-11.38,11.32,3.41,46.52,4.55,51.55c1.14,5.03,7.97,10.06,15.93,10.06s47.8,1.26,47.8,1.26l1.16-31.67-7.22-39.74Z" fill="#b52c1a"/><polygon points="1343.51 246.56 1347.59 302.32 1363.91 302.32 1359.83 245.99 1343.51 246.56" fill="#f23325"/><path d="m438.55,421.78l-.29-1.59c-.17-.94-17.09-95.27,5.82-163.99,12.23-36.7,28.87-59.75,29.04-59.98l3.1,2.26c-.16.22-16.47,22.84-28.5,58.94-20.97,62.92-8.06,147.86-5.96,160.49l331.5-3.79c-3.48-12.29-18.33-68.67-14.71-122.91,5.71-85.64,18.77-118.18,19.32-119.52l3.55,1.46c-.13.32-13.38,33.45-19.04,118.32-4.02,60.31,15.07,123.35,15.26,123.98l.75,2.45-2.56.03-337.28,3.86Z" fill="#2b2a25"/><path d="m971.2,419.86l-195.42-1.93.04-3.84,192.07,1.9c1.12-6.69,6.13-31.79,21.13-54.74,31.07-47.51,103.91-55.66,111.99-56.42,2.09-2.28,11.84-14.89,8.55-47.83-3.77-37.76-22.76-106.4-22.96-107.09l3.7-1.03c.19.69,19.27,69.65,23.08,107.73,3.89,38.91-9.67,51.02-10.25,51.52l-.48.41-.63.05c-.78.06-78.08,6.28-109.78,54.76-16.66,25.48-20.76,54.54-20.8,54.83l-.23,1.68Z" fill="#2b2a25"/><path d="m1180.52,247.21c-22.21,0-40.28-12.91-40.28-28.77s18.07-28.77,40.28-28.77,40.28,12.91,40.28,28.77-18.07,28.77-40.28,28.77Zm0-53.71c-20.1,0-36.44,11.19-36.44,24.94s16.35,24.94,36.44,24.94,36.44-11.18,36.44-24.94-16.35-24.94-36.44-24.94Z" fill="#2b2a25"/><path d="m732.37,246.7c.87,7.49-4.51,14.27-12,15.13l-54.26,6.26c-7.49.87-14.27-4.51-15.13-12l-.52-4.52c-.86-7.49,4.51-14.27,12-15.13l54.26-6.26c7.49-.87,14.27,4.51,15.13,12l.52,4.52Z" fill="#f9cc3d"/><path d="m736.6,230.28c.47,4.06-2.44,7.73-6.5,8.2l-84.78,9.82c-4.06.47-7.73-2.44-8.2-6.5h0c-.47-4.06,2.44-7.73,6.5-8.2l84.78-9.82c4.06-.47,7.73,2.44,8.2,6.5h0Z" fill="#2b2a25"/><path d="m1071.8,225.5c.86,7.49-4.51,14.27-12,15.13l-54.26,6.26c-7.49.87-14.27-4.51-15.13-12l-.52-4.52c-.87-7.49,4.51-14.27,12-15.13l54.26-6.26c7.49-.86,14.27,4.51,15.13,12l.52,4.52Z" fill="#f9cc3d"/><path d="m1076.02,209.09c.47,4.06-2.44,7.73-6.5,8.2l-84.78,9.82c-4.06.47-7.73-2.44-8.2-6.5h0c-.47-4.06,2.44-7.73,6.5-8.2l84.78-9.82c4.06-.47,7.73,2.44,8.2,6.5h0Z" fill="#2b2a25"/></svg>